<svg xmlns="http://www.w3.org/2000/svg" viewBox="0 0 960 960" width="960" height="960">
  <g transform="scale(10)" fill="none" stroke="#ffffff" stroke-width="3.4" stroke-linecap="round" stroke-linejoin="round"><path d="M16 40 L38 40 L38 78 L16 78 Z"></path><path d="M16 40 L25 32 L47 32 L38 40"></path><path d="M38 40 L47 32 L47 70 L38 78"></path><path d="M20 46 L32 46"></path><path d="M61 82 L73 38 M91 82 L77 38"></path><path d="M73 38 L75 32 L77 38"></path><path d="M66 44 H84 M63 50 H87"></path><path d="M69 44 V49 M81 44 V49 M66 50 V55 M84 50 V55"></path><path d="M66 62 H86 M63 73 H89"></path><path d="M66 62 L86 73 M85 62 L66 73"></path><path d="M51 52 L60 52 M60 52 L56 49 M60 52 L56 55"></path><path d="M60 64 L51 64 M51 64 L55 61 M51 64 L55 67"></path></g>
</svg>