<svg xmlns="http://www.w3.org/2000/svg" viewBox="0 0 960 960" width="960" height="960">
  <g transform="translate(150 165.5) scale(6.6)" fill="#ffffff" stroke="#000000" stroke-width="1.6" stroke-linejoin="miter"><path d="M1.91 0L12.77 0.21L21.28 2.13L29.57 5.74L34.68 8.94L40.43 14.04L45.32 19.79L76.38 64.26L80.21 68.3L85.32 71.49L90.64 72.77L99.36 72.98L100 74.04L100 94.47L99.36 95.32L89.79 95.32L80.85 93.62L72.77 90.43L66.6 86.81L58.72 79.57L54.47 74.47L28.09 36.38L21.06 27.45L16.81 24.47L12.34 22.77L1.28 22.34L0 21.49L0 1.06L1.91 0.21Z"></path><path d="M69.79 0L99.15 0L100 0.85L99.57 21.7L81.91 22.13L74.89 31.28L72.55 35.32L70.64 37.45L69.79 37.45L56.38 18.3L57.66 15.53L67.87 1.28L69.79 0.21Z"></path><path d="M29.15 56.6L35.11 64.04L42.98 75.74L42.13 77.87L29.79 94.89L1.7 95.32L0.43 94.89L0 93.62L0 74.04L1.91 73.19L16.6 72.98L19.79 69.36L27.02 58.51L29.15 56.81Z"></path></g>
</svg>